name ./resultDataOpenSim/trcMotMarkerGrf/sub09/grf-12-04.mot
datacolumns 19
datarows 10
range 0.96000000 0.99600000
endheader

                time	     ground_force_vx	     ground_force_vy	     ground_force_vz	     ground_force_px	     ground_force_py	     ground_force_pz	   l_ground_force_vx	   l_ground_force_vy	   l_ground_force_vz	   l_ground_force_px	   l_ground_force_py	   l_ground_force_pz	     ground_torque_x	     ground_torque_y	     ground_torque_z	   l_ground_torque_x	   l_ground_torque_y	   l_ground_torque_z	
          0.96000000	          0.00000000	          0.00000000	          0.00000000	          0.00000000	          0.00000000	          0.00000000	         -5.59315251	        432.09837600	          0.46256672	          0.19899609	         -0.02500000	         -0.00547940	          0.00000000	          0.00000000	          0.00000000	          0.00000000	         -1.00917884	          0.00000000	
          0.96400000	          0.00000000	          0.00000000	          0.00000000	          0.00000000	          0.00000000	          0.00000000	         -3.66455734	        438.35052569	         -0.02157461	          0.19972081	         -0.02500000	         -0.00511832	          0.00000000	          0.00000000	          0.00000000	          0.00000000	         -1.21307635	          0.00000000	
          0.96800000	          0.00000000	          0.00000000	          0.00000000	          0.00000000	          0.00000000	          0.00000000	         -1.42569559	        445.15311654	         -0.35803090	          0.20045425	         -0.02500000	         -0.00474770	          0.00000000	          0.00000000	          0.00000000	          0.00000000	         -1.42296766	          0.00000000	
          0.97200000	          0.00000000	          0.00000000	          0.00000000	          0.00000000	          0.00000000	          0.00000000	          1.17069891	        452.44756604	         -0.51105822	          0.20121024	         -0.02500000	         -0.00437114	          0.00000000	          0.00000000	          0.00000000	          0.00000000	         -1.63656995	          0.00000000	
          0.97600000	          0.00000000	          0.00000000	          0.00000000	          0.00000000	          0.00000000	          0.00000000	          4.17401208	        460.12148050	         -0.45387581	          0.20197347	         -0.02500000	         -0.00399637	          0.00000000	          0.00000000	          0.00000000	          0.00000000	         -1.85265470	          0.00000000	
          0.98000000	          0.00000000	          0.00000000	          0.00000000	          0.00000000	          0.00000000	          0.00000000	          7.60534395	        468.03804197	         -0.16981917	          0.20270008	         -0.02500000	         -0.00363954	          0.00000000	          0.00000000	          0.00000000	          0.00000000	         -2.07114426	          0.00000000	
          0.98400000	          0.00000000	          0.00000000	          0.00000000	          0.00000000	          0.00000000	          0.00000000	         11.45416022	        476.09536476	          0.33180430	          0.20333968	         -0.02500000	         -0.00332271	          0.00000000	          0.00000000	          0.00000000	          0.00000000	         -2.29304592	          0.00000000	
          0.98800000	          0.00000000	          0.00000000	          0.00000000	          0.00000000	          0.00000000	          0.00000000	         15.70275062	        484.24714501	          1.00190397	          0.20385302	         -0.02500010	         -0.00307273	          0.00000000	          0.00000000	          0.00000000	          0.00000000	         -2.52010695	          0.00000000	
          0.99200000	          0.00000000	          0.00000000	          0.00000000	          0.00000000	          0.00000000	          0.00000000	         20.33908605	        492.50264889	          1.76461664	          0.20422268	         -0.02500085	         -0.00290827	          0.00000000	          0.00000000	          0.00000000	          0.00000000	         -2.75416080	          0.00000000	
          0.99600000	          0.00000000	          0.00000000	          0.00000000	          0.00000000	          0.00000000	          0.00000000	         25.34466854	        500.91458813	          2.55495837	          0.20444535	         -0.02500100	         -0.00282509	          0.00000000	          0.00000000	          0.00000000	          0.00000000	         -2.99637972	          0.00000000	
